HIERARCHY
ROOT Hips
{
  OFFSET 5.84602e-005 68.8428 3.50346
  CHANNELS 6 Xposition Yposition Zposition Zrotation Xrotation Yrotation
  JOINT Spine
  {
    OFFSET 0 8.597 -4.6522
    CHANNELS 3 Zrotation Xrotation Yrotation
    JOINT Spine1
    {
      OFFSET 0 7.8454 0.4098
      CHANNELS 3 Zrotation Xrotation Yrotation
      JOINT Spine2
      {
        OFFSET 0 9.7078 -2.1609
        CHANNELS 3 Zrotation Xrotation Yrotation
        JOINT Neck
        {
          OFFSET 0 21.8761 -0.4549
          CHANNELS 3 Zrotation Xrotation Yrotation
          JOINT Head
          {
            OFFSET 0 12.3537 3.3602
            CHANNELS 3 Zrotation Xrotation Yrotation
            End Site
            {
              OFFSET 0.0001 18.9506 0.5657
            }
          }
        }
        JOINT LeftShoulder
        {
          OFFSET 2.2086 21.1115 7.2329
          CHANNELS 3 Zrotation Xrotation Yrotation
          JOINT LeftArm
          {
            OFFSET 13.1193 3.0282 -4.8998
            CHANNELS 3 Zrotation Xrotation Yrotation
            JOINT LeftForeArm
            {
              OFFSET 27.4081 -0.0973053 -0.2375
              CHANNELS 3 Zrotation Xrotation Yrotation
              JOINT LeftHand
              {
                OFFSET 22.8641 0.0662994 -0.1369
                CHANNELS 3 Zrotation Xrotation Yrotation
                JOINT LeftHandIndex1
                {
                  OFFSET 8.8614 0.775009 2.4612
                  CHANNELS 3 Zrotation Xrotation Yrotation
                  JOINT LeftHandIndex2
                  {
                    OFFSET 3.3146 -0.808304 0.5841
                    CHANNELS 3 Zrotation Xrotation Yrotation
                    JOINT LeftHandIndex3
                    {
                      OFFSET 2.2628 -0.552002 0.3989
                      CHANNELS 3 Zrotation Xrotation Yrotation
                      End Site
                      {
                        OFFSET 1.6102 -0.4807 0.2612
                      }
                    }
                  }
                }
                JOINT LeftHandMiddle1
                {
                  OFFSET 8.9937 0.895004 0.2143
                  CHANNELS 3 Zrotation Xrotation Yrotation
                  JOINT LeftHandMiddle2
                  {
                    OFFSET 4.0984 0.0113983 -0.0242
                    CHANNELS 3 Zrotation Xrotation Yrotation
                    JOINT LeftHandMiddle3
                    {
                      OFFSET 2.2716 0.00689697 -0.0138001
                      CHANNELS 3 Zrotation Xrotation Yrotation
                      End Site
                      {
                        OFFSET 2.0404 -0.1441 0.0027
                      }
                    }
                  }
                }
                JOINT LeftHandRing1
                {
                  OFFSET 8.5234 0.597198 -2.0164
                  CHANNELS 3 Zrotation Xrotation Yrotation
                  JOINT LeftHandRing2
                  {
                    OFFSET 3.7188 -0.188293 -0.2328
                    CHANNELS 3 Zrotation Xrotation Yrotation
                    JOINT LeftHandRing3
                    {
                      OFFSET 2.1191 -0.106598 -0.1332
                      CHANNELS 3 Zrotation Xrotation Yrotation
                      End Site
                      {
                        OFFSET 1.8737 -0.2304 -0.0886
                      }
                    }
                  }
                }
                JOINT LeftHandPinky1
                {
                  OFFSET 7.9094 -0.601089 -3.4825
                  CHANNELS 3 Zrotation Xrotation Yrotation
                  JOINT LeftHandPinky2
                  {
                    OFFSET 2.2874 -0.477005 -0.6314
                    CHANNELS 3 Zrotation Xrotation Yrotation
                    JOINT LeftHandPinky3
                    {
                      OFFSET 1.6774 -0.349396 -0.4633
                      CHANNELS 3 Zrotation Xrotation Yrotation
                      End Site
                      {
                        OFFSET 1.4888 -0.4091 -0.3416
                      }
                    }
                  }
                }
                JOINT LeftHandThumb1
                {
                  OFFSET 1.833 -1.3875 1.3896
                  CHANNELS 3 Zrotation Xrotation Yrotation
                  JOINT LeftHandThumb2
                  {
                    OFFSET 3.4129 -1.121 2.5732
                    CHANNELS 3 Zrotation Xrotation Yrotation
                    JOINT LeftHandThumb3
                    {
                      OFFSET 2.2474 -0.804199 1.6192
                      CHANNELS 3 Zrotation Xrotation Yrotation
                      End Site
                      {
                        OFFSET 1.6527 -0.5689 1.1317
                      }
                    }
                  }
                }
              }
            }
          }
        }
        JOINT RightShoulder
        {
          OFFSET -2.2086 21.1115 7.2329
          CHANNELS 3 Zrotation Xrotation Yrotation
          JOINT RightArm
          {
            OFFSET -13.1216 3.0287 -4.9007
            CHANNELS 3 Zrotation Xrotation Yrotation
            JOINT RightForeArm
            {
              OFFSET -27.4081 -0.0973053 -0.2375
              CHANNELS 3 Zrotation Xrotation Yrotation
              JOINT RightHand
              {
                OFFSET -22.8641 0.0664063 -0.1369
                CHANNELS 3 Zrotation Xrotation Yrotation
                JOINT RightHandIndex1
                {
                  OFFSET -8.8614 0.774994 2.4612
                  CHANNELS 3 Zrotation Xrotation Yrotation
                  JOINT RightHandIndex2
                  {
                    OFFSET -3.3146 -0.808304 0.5841
                    CHANNELS 3 Zrotation Xrotation Yrotation
                    JOINT RightHandIndex3
                    {
                      OFFSET -2.2628 -0.552002 0.3989
                      CHANNELS 3 Zrotation Xrotation Yrotation
                      End Site
                      {
                        OFFSET -1.6102 -0.4807 0.2612
                      }
                    }
                  }
                }
                JOINT RightHandMiddle1
                {
                  OFFSET -8.9937 0.894989 0.2143
                  CHANNELS 3 Zrotation Xrotation Yrotation
                  JOINT RightHandMiddle2
                  {
                    OFFSET -4.0984 0.0113983 -0.0242
                    CHANNELS 3 Zrotation Xrotation Yrotation
                    JOINT RightHandMiddle3
                    {
                      OFFSET -2.2716 0.00691223 -0.0138001
                      CHANNELS 3 Zrotation Xrotation Yrotation
                      End Site
                      {
                        OFFSET -2.0404 -0.1441 0.0027
                      }
                    }
                  }
                }
                JOINT RightHandRing1
                {
                  OFFSET -8.5234 0.597198 -2.0164
                  CHANNELS 3 Zrotation Xrotation Yrotation
                  JOINT RightHandRing2
                  {
                    OFFSET -3.7188 -0.188309 -0.2328
                    CHANNELS 3 Zrotation Xrotation Yrotation
                    JOINT RightHandRing3
                    {
                      OFFSET -2.1191 -0.106598 -0.1332
                      CHANNELS 3 Zrotation Xrotation Yrotation
                      End Site
                      {
                        OFFSET -1.8737 -0.2304 -0.0886
                      }
                    }
                  }
                }
                JOINT RightHandPinky1
                {
                  OFFSET -7.9094 -0.601105 -3.4825
                  CHANNELS 3 Zrotation Xrotation Yrotation
                  JOINT RightHandPinky2
                  {
                    OFFSET -2.2874 -0.477005 -0.6314
                    CHANNELS 3 Zrotation Xrotation Yrotation
                    JOINT RightHandPinky3
                    {
                      OFFSET -1.6774 -0.349396 -0.4633
                      CHANNELS 3 Zrotation Xrotation Yrotation
                      End Site
                      {
                        OFFSET -1.4888 -0.4091 -0.3416
                      }
                    }
                  }
                }
                JOINT RightHandThumb1
                {
                  OFFSET -1.833 -1.38751 1.3896
                  CHANNELS 3 Zrotation Xrotation Yrotation
                  JOINT RightHandThumb2
                  {
                    OFFSET -3.41299 -1.12099 2.5732
                    CHANNELS 3 Zrotation Xrotation Yrotation
                    JOINT RightHandThumb3
                    {
                      OFFSET -2.24741 -0.804108 1.6192
                      CHANNELS 3 Zrotation Xrotation Yrotation
                      End Site
                      {
                        OFFSET -1.6527 -0.5689 1.1317
                      }
                    }
                  }
                }
              }
            }
          }
        }
      }
    }
  }
  JOINT RightUpLeg
  {
    OFFSET -9.1966 3.8861 -0.7581
    CHANNELS 3 Zrotation Xrotation Yrotation
    JOINT RightLeg
    {
      OFFSET -0.7359 -41.0265 0
      CHANNELS 3 Zrotation Xrotation Yrotation
      JOINT RightFoot
      {
        OFFSET 0 -40.2855 0
        CHANNELS 3 Zrotation Xrotation Yrotation
        JOINT RightToeBase
        {
          OFFSET 0 -5.6122 11.7359
          CHANNELS 3 Zrotation Xrotation Yrotation
          End Site
          {
            OFFSET 0 0 7.8731
          }
        }
      }
    }
  }
  JOINT LeftUpLeg
  {
    OFFSET 9.1965 3.8864 -0.7581
    CHANNELS 3 Zrotation Xrotation Yrotation
    JOINT LeftLeg
    {
      OFFSET 0.7359 -41.0268 0
      CHANNELS 3 Zrotation Xrotation Yrotation
      JOINT LeftFoot
      {
        OFFSET 0 -40.2855 0
        CHANNELS 3 Zrotation Xrotation Yrotation
        JOINT LeftToeBase
        {
          OFFSET 0 -5.6122 11.7359
          CHANNELS 3 Zrotation Xrotation Yrotation
          End Site
          {
            OFFSET 0 0 7.8731
          }
        }
      }
    }
  }
}
MOTION
Frames:	4
Frame Time:	0.0333333
5.84602e-005 68.8428 3.50346 0 0 -0 0 0 -0 0 0 -0 0 0 -0 0 0 -0 0 0 -0 0 0 -0 0 0.004281 -0 0 0 -0 0 0 -0 0 0 -0 0 0 -0 0 0 -0 0 0 -0 -0.01461 -8.87557e-005 -2.54696e-007 3.5878e-018 -7.76503e-019 -9.47879e-023 0 0 -0 -0.0187267 -0.00117415 5.84731e-005 -2.94151e-018 3.88251e-019 -0 0 0 -0 -0.0124082 -0.00328514 0.000682361 -1.46184e-018 -3.88251e-019 -3.88251e-019 0 0 -0 0 0 -0 0 0 -0 0 0 -0 0 0.003114 -0 0 0 -0 0 0 -0 0 0 -0 0 0 -0 0 0 -0 0 0 -0 0.014995 -9.10951e-005 2.53757e-007 -4.84618e-018 -3.88251e-019 -9.47879e-023 0 0 -0 0.0189663 -0.00118917 -5.94825e-005 -3.31508e-019 0 -0 0 0 -0 0.0122841 -0.00325235 -0.000674677 -2.66324e-018 -2.42657e-020 1.94126e-019 0 0 -0 0 0 -0 0 0 -0 3.39842 1.33031 -0.0637918 -5.65207e-008 0.834868 -0.000436188 -3.39935 -2.16518 -0.0642563 -8.89002e-024 -1.18485e-023 -1.48106e-024 -3.39844 1.35642 0.0640283 -3.18788e-007 0.782166 -0.000588827 3.39931 -2.13858 0.0634662 1.1399e-023 0 -0 
1.74535 29.8661 -2.56157 0 30.8055 -0 -0.291995 1.79217 -0.652654 -0.56395 3.5875 -1.29711 -0.56395 3.58749 -1.29711 1.86165e-005 -20.1926 2.00269e-005 1.28913e-006 0.412797 3.31673e-007 -14.3724 -6.74171 -17.8505 -53.1489 0.00380603 -27.48 -29.558 36.6336 -69.1383 61.8171 -4.04152 -8.82987 3.06999e-007 5.18425e-007 -1.06831e-006 -3.06999e-007 -5.18425e-007 1.06831e-006 3.06999e-007 5.18425e-007 -1.06831e-006 3.06999e-007 5.18425e-007 -1.06831e-006 -0.0146044 -9.14493e-005 -2.87319e-007 3.97569e-016 -2.18663e-015 3.18055e-015 3.06999e-007 5.18425e-007 -1.06831e-006 -0.0187438 -0.00117714 6.08348e-005 7.95139e-016 -4.72114e-015 1.59028e-015 3.06999e-007 5.18425e-007 -1.06831e-006 -0.0122549 -0.00324673 0.00066821 -3.97569e-015 5.46658e-016 1.59028e-014 3.06999e-007 5.18425e-007 -1.06831e-006 -3.06999e-007 -5.18425e-007 1.06831e-006 3.06999e-007 5.18425e-007 -1.06831e-006 8.50537 -8.52618 18.1197 53.1461 0.00270291 29.5772 29.556 36.6305 69.1337 -51.325 -4.09688 8.81624 -6.36111e-015 9.93923e-016 1.59028e-015 -4.77083e-015 5.96354e-016 1.59028e-015 -6.36111e-015 7.95139e-016 -7.95139e-016 -6.36111e-015 9.93923e-016 1.59028e-015 0.0150037 -8.63945e-005 1.08776e-006 -3.18055e-015 1.19271e-015 -0 -6.36111e-015 9.93923e-016 1.59028e-015 0.019015 -0.00119705 -6.45849e-005 -1.59028e-015 2.38542e-015 7.95139e-016 -6.36111e-015 9.93923e-016 1.59028e-015 0.0123063 -0.00325726 -0.000673392 1.51578e-006 4.22855e-007 -8.15777e-007 -6.36111e-015 9.93923e-016 1.59028e-015 -4.77083e-015 5.96354e-016 1.59028e-015 -6.36111e-015 7.95139e-016 -7.95139e-016 -11.892 -36.6683 -22.0924 -172.983 73.7096 170.07 26.4117 52.2564 -34.0848 -1.93789e-007 1.27473e-006 -1.66923e-006 11.6905 -36.5868 21.8826 173.439 73.8135 -170.464 -25.3677 51.1399 33.1488 -4.00526e-008 5.71133e-008 -2.01687e-007 
1.64261 32.1049 -1.65918 0 28.9934 -0 -0.287317 1.89841 -0.603214 -0.555067 3.79971 -1.19788 -0.555067 3.79974 -1.19788 -1.91142e-005 -19.0045 -2.50767e-005 -6.19847e-007 0.504514 -3.51277e-007 -13.4097 -6.38118 -16.7875 -50.1125 0.00386608 -25.3345 -30.0558 37.4714 -64.4334 57.3555 -3.20495 -9.41441 1.71611e-006 -1.78521e-006 -1.93618e-006 1.71611e-006 -1.78521e-006 -1.93618e-006 1.71611e-006 -1.78521e-006 -1.93618e-006 1.71611e-006 -1.78521e-006 -1.93618e-006 -0.0146086 -8.63266e-005 -3.73576e-006 1.71628e-006 -1.78497e-006 -1.93641e-006 1.71611e-006 -1.78521e-006 -1.93618e-006 -0.0187679 -0.00116694 5.22705e-005 1.71631e-006 -1.78488e-006 -1.93649e-006 1.71611e-006 -1.78521e-006 -1.93618e-006 -0.0122364 -0.0032397 0.000669148 1.71619e-006 -1.78498e-006 -1.93643e-006 1.71611e-006 -1.78521e-006 -1.93618e-006 1.71611e-006 -1.78521e-006 -1.93618e-006 1.71611e-006 -1.78521e-006 -1.93618e-006 8.40891 -7.94554 16.745 50.1106 0.00276397 27.2203 30.0537 37.4681 64.4292 -47.9406 -3.4632 9.36609 -0 0 1.59028e-015 -1.92656e-006 -1.74033e-006 1.92274e-006 3.18055e-015 2.38542e-015 -1.59028e-015 -0 0 1.59028e-015 0.0149969 -9.82282e-005 3.03229e-006 7.88836e-008 -4.66062e-007 6.6386e-007 -0 0 1.59028e-015 0.0189959 -0.00119955 -5.97332e-005 6.36111e-015 -1.59028e-015 -4.77083e-015 -0 0 1.59028e-015 0.0123173 -0.00325552 -0.000674379 7.86174e-008 -4.66416e-007 6.63774e-007 -0 0 1.59028e-015 -1.92656e-006 -1.74033e-006 1.92274e-006 3.18055e-015 2.38542e-015 -1.59028e-015 -10.1116 -33.9301 -19.9722 -169.546 80.2063 167.044 21.6942 49.6504 -29.7518 -1.63578e-007 -1.63547e-007 -5.97016e-007 9.93458 -33.8522 19.7803 170.196 80.321 -167.622 -20.8977 48.5604 29.0462 1.13251e-007 -1.0916e-007 3.9681e-007 
1.64261 32.1009 -1.15717 0 28.9934 -0 -0.288827 2.09824 -0.599319 -0.556218 4.19952 -1.18924 -0.556217 4.19951 -1.18924 -1.31431e-005 -19.0047 -9.57615e-006 -2.37031e-008 0.614077 1.2273e-007 -13.4097 -6.38122 -16.7875 -50.1971 0.00388595 -24.8349 -30.0558 37.4715 -64.4334 56.5532 -2.6181 -10.4516 1.59028e-015 0 -4.77083e-015 3.31043e-032 3.97569e-016 -4.77083e-015 9.93129e-032 1.19271e-015 -4.77083e-015 1.59028e-015 0 -4.77083e-015 -0.0145979 -8.91697e-005 -1.03015e-006 3.18055e-015 3.97569e-016 -1.59028e-015 1.59028e-015 0 -4.77083e-015 -0.0187607 -0.00117441 5.69704e-005 1.59028e-015 -1.98785e-015 -4.77083e-015 1.59028e-015 0 -4.77083e-015 -0.0122511 -0.00324686 0.000680184 1.59028e-015 1.19271e-015 -0 1.59028e-015 0 -4.77083e-015 3.31043e-032 3.97569e-016 -4.77083e-015 9.93129e-032 1.19271e-015 -4.77083e-015 8.93362 -7.82916 16.4722 50.1957 0.00278332 26.6373 30.0537 37.4681 64.4292 -47.5691 -3.08001 10.3754 -1.91007e-006 -1.74681e-006 1.93554e-006 -1.91007e-006 -1.74681e-006 1.93554e-006 -1.91007e-006 -1.74681e-006 1.93554e-006 -1.91007e-006 -1.74681e-006 1.93554e-006 0.015024 -9.97667e-005 8.79015e-006 -1.91022e-006 -1.74656e-006 1.93577e-006 -1.91007e-006 -1.74681e-006 1.93554e-006 0.0190036 -0.00119913 -5.59305e-005 -1.91023e-006 -1.74648e-006 1.93585e-006 -1.91007e-006 -1.74681e-006 1.93554e-006 0.0122684 -0.00324876 -0.000677555 -1.91013e-006 -1.74659e-006 1.93579e-006 -1.91007e-006 -1.74681e-006 1.93554e-006 -1.91007e-006 -1.74681e-006 1.93554e-006 -1.91007e-006 -1.74681e-006 1.93554e-006 -10.0084 -33.2346 -19.8066 -169.206 80.838 166.745 21.6645 49.6501 -29.7149 1.08834e-007 1.09278e-007 3.98006e-007 9.83176 -33.1557 19.613 169.908 80.9598 -167.369 -20.8696 48.5599 29.0101 1.97831e-007 -1.91497e-007 6.94397e-007 
